<mxfile host="app.diagrams.net" modified="2024-02-08T08:53:08.557Z" agent="Mozilla/5.0 (Windows NT 10.0; Win64; x64; rv:121.0) Gecko/20100101 Firefox/121.0" etag="-dFD9MdQD7Rs8tBgbEM4" version="23.1.1" type="github">
  <diagram name="Page-1" id="0cTdit1bKc_Ym_qucfK5">
    <mxGraphModel dx="3034" dy="1724" grid="0" gridSize="10" guides="1" tooltips="1" connect="1" arrows="1" fold="1" page="0" pageScale="1" pageWidth="827" pageHeight="1169" math="0" shadow="0">
      <root>
        <mxCell id="0" />
        <mxCell id="1" parent="0" />
        <mxCell id="MWsR9NhOi4AlFJ0MHyTv-120" value="" style="ellipse;shape=cloud;whiteSpace=wrap;html=1;fontSize=16;" parent="1" vertex="1">
          <mxGeometry x="44" y="263" width="448" height="384" as="geometry" />
        </mxCell>
        <mxCell id="MWsR9NhOi4AlFJ0MHyTv-60" value="" style="ellipse;shape=cloud;whiteSpace=wrap;html=1;fontSize=16;" parent="1" vertex="1">
          <mxGeometry x="-1185" y="-184" width="483" height="456" as="geometry" />
        </mxCell>
        <mxCell id="MWsR9NhOi4AlFJ0MHyTv-30" value="" style="ellipse;shape=cloud;whiteSpace=wrap;html=1;fontSize=16;fillColor=#dae8fc;strokeColor=#6c8ebf;" parent="1" vertex="1">
          <mxGeometry x="-499" y="-657" width="533" height="514" as="geometry" />
        </mxCell>
        <mxCell id="MWsR9NhOi4AlFJ0MHyTv-17" value="" style="ellipse;shape=cloud;whiteSpace=wrap;html=1;fontSize=16;fillColor=#dae8fc;strokeColor=#6c8ebf;" parent="1" vertex="1">
          <mxGeometry x="-391" y="324.5" width="388" height="293.5" as="geometry" />
        </mxCell>
        <mxCell id="MWsR9NhOi4AlFJ0MHyTv-8" value="" style="ellipse;shape=cloud;whiteSpace=wrap;html=1;fontSize=16;fillColor=#dae8fc;strokeColor=#6c8ebf;" parent="1" vertex="1">
          <mxGeometry x="-685" y="-188" width="862" height="505" as="geometry" />
        </mxCell>
        <mxCell id="MWsR9NhOi4AlFJ0MHyTv-7" style="edgeStyle=none;curved=1;rounded=0;orthogonalLoop=1;jettySize=auto;html=1;fontSize=12;startSize=8;endSize=8;" parent="1" source="MWsR9NhOi4AlFJ0MHyTv-1" target="MWsR9NhOi4AlFJ0MHyTv-2" edge="1">
          <mxGeometry relative="1" as="geometry" />
        </mxCell>
        <mxCell id="MWsR9NhOi4AlFJ0MHyTv-15" style="edgeStyle=none;curved=1;rounded=0;orthogonalLoop=1;jettySize=auto;html=1;entryX=1;entryY=0.5;entryDx=0;entryDy=0;fontSize=12;startSize=8;endSize=8;" parent="1" source="MWsR9NhOi4AlFJ0MHyTv-1" target="MWsR9NhOi4AlFJ0MHyTv-3" edge="1">
          <mxGeometry relative="1" as="geometry" />
        </mxCell>
        <mxCell id="MWsR9NhOi4AlFJ0MHyTv-32" style="edgeStyle=none;curved=1;rounded=0;orthogonalLoop=1;jettySize=auto;html=1;entryX=0.5;entryY=1;entryDx=0;entryDy=0;fontSize=12;startSize=8;endSize=8;startArrow=none;startFill=0;fillColor=#ffe6cc;strokeColor=#d79b00;endArrow=classic;endFill=1;" parent="1" source="MWsR9NhOi4AlFJ0MHyTv-1" target="MWsR9NhOi4AlFJ0MHyTv-31" edge="1">
          <mxGeometry relative="1" as="geometry" />
        </mxCell>
        <mxCell id="MWsR9NhOi4AlFJ0MHyTv-38" value="Un document appartient à une archive" style="edgeLabel;html=1;align=center;verticalAlign=middle;resizable=0;points=[];fontSize=16;" parent="MWsR9NhOi4AlFJ0MHyTv-32" vertex="1" connectable="0">
          <mxGeometry x="0.1102" y="-2" relative="1" as="geometry">
            <mxPoint x="22" y="-11" as="offset" />
          </mxGeometry>
        </mxCell>
        <mxCell id="MWsR9NhOi4AlFJ0MHyTv-55" style="edgeStyle=none;curved=1;rounded=0;orthogonalLoop=1;jettySize=auto;html=1;fontSize=12;startSize=8;endSize=8;" parent="1" source="MWsR9NhOi4AlFJ0MHyTv-1" target="MWsR9NhOi4AlFJ0MHyTv-54" edge="1">
          <mxGeometry relative="1" as="geometry" />
        </mxCell>
        <mxCell id="MWsR9NhOi4AlFJ0MHyTv-1" value="Document" style="rounded=0;whiteSpace=wrap;html=1;fontSize=16;fillColor=#f8cecc;strokeColor=#b85450;" parent="1" vertex="1">
          <mxGeometry x="-212" y="28" width="120" height="60" as="geometry" />
        </mxCell>
        <mxCell id="MWsR9NhOi4AlFJ0MHyTv-25" style="edgeStyle=none;curved=1;rounded=0;orthogonalLoop=1;jettySize=auto;html=1;fontSize=12;startSize=8;endSize=8;fillColor=#ffe6cc;strokeColor=#d79b00;" parent="1" source="MWsR9NhOi4AlFJ0MHyTv-2" target="MWsR9NhOi4AlFJ0MHyTv-18" edge="1">
          <mxGeometry relative="1" as="geometry" />
        </mxCell>
        <mxCell id="MWsR9NhOi4AlFJ0MHyTv-27" value="Un index peut référencer des BOs pour ses valeurs possibles" style="edgeLabel;html=1;align=center;verticalAlign=middle;resizable=0;points=[];fontSize=16;" parent="MWsR9NhOi4AlFJ0MHyTv-25" vertex="1" connectable="0">
          <mxGeometry x="-0.3878" y="4" relative="1" as="geometry">
            <mxPoint x="-52" y="17" as="offset" />
          </mxGeometry>
        </mxCell>
        <mxCell id="MWsR9NhOi4AlFJ0MHyTv-129" style="edgeStyle=none;curved=1;rounded=0;orthogonalLoop=1;jettySize=auto;html=1;entryX=0.25;entryY=0;entryDx=0;entryDy=0;fontSize=12;startSize=8;endSize=8;exitX=0.8;exitY=0.8;exitDx=0;exitDy=0;exitPerimeter=0;fillColor=#ffe6cc;strokeColor=#d79b00;" parent="1" source="MWsR9NhOi4AlFJ0MHyTv-8" target="MWsR9NhOi4AlFJ0MHyTv-121" edge="1">
          <mxGeometry relative="1" as="geometry" />
        </mxCell>
        <mxCell id="MWsR9NhOi4AlFJ0MHyTv-130" value="Génère" style="edgeLabel;html=1;align=center;verticalAlign=middle;resizable=0;points=[];fontSize=16;" parent="MWsR9NhOi4AlFJ0MHyTv-129" vertex="1" connectable="0">
          <mxGeometry x="-0.1799" y="-1" relative="1" as="geometry">
            <mxPoint x="24" y="28" as="offset" />
          </mxGeometry>
        </mxCell>
        <mxCell id="MWsR9NhOi4AlFJ0MHyTv-2" value="Index" style="rounded=0;whiteSpace=wrap;html=1;fontSize=16;" parent="1" vertex="1">
          <mxGeometry x="-213" y="196" width="120" height="60" as="geometry" />
        </mxCell>
        <mxCell id="MWsR9NhOi4AlFJ0MHyTv-3" value="Document type" style="rounded=0;whiteSpace=wrap;html=1;fontSize=16;" parent="1" vertex="1">
          <mxGeometry x="-439" y="31" width="120" height="60" as="geometry" />
        </mxCell>
        <mxCell id="MWsR9NhOi4AlFJ0MHyTv-9" value="GED" style="text;html=1;strokeColor=none;fillColor=none;align=center;verticalAlign=middle;whiteSpace=wrap;rounded=0;fontSize=16;fontStyle=1" parent="1" vertex="1">
          <mxGeometry x="-272" y="-125" width="60" height="30" as="geometry" />
        </mxCell>
        <mxCell id="MWsR9NhOi4AlFJ0MHyTv-10" value="" style="ellipse;shape=cloud;whiteSpace=wrap;html=1;fontSize=16;fillColor=#dae8fc;strokeColor=#6c8ebf;" parent="1" vertex="1">
          <mxGeometry x="165" y="-148" width="518" height="461" as="geometry" />
        </mxCell>
        <mxCell id="MWsR9NhOi4AlFJ0MHyTv-20" style="edgeStyle=none;curved=1;rounded=0;orthogonalLoop=1;jettySize=auto;html=1;fontSize=12;startSize=8;endSize=8;endArrow=none;endFill=0;startArrow=classic;startFill=1;fillColor=#ffe6cc;strokeColor=#d79b00;" parent="1" source="MWsR9NhOi4AlFJ0MHyTv-11" target="MWsR9NhOi4AlFJ0MHyTv-1" edge="1">
          <mxGeometry relative="1" as="geometry" />
        </mxCell>
        <mxCell id="MWsR9NhOi4AlFJ0MHyTv-26" value="Un workflow est démarré sur un document" style="edgeLabel;html=1;align=center;verticalAlign=middle;resizable=0;points=[];fontSize=16;" parent="MWsR9NhOi4AlFJ0MHyTv-20" vertex="1" connectable="0">
          <mxGeometry x="0.1481" relative="1" as="geometry">
            <mxPoint x="35" y="2" as="offset" />
          </mxGeometry>
        </mxCell>
        <mxCell id="MWsR9NhOi4AlFJ0MHyTv-39" style="edgeStyle=none;curved=1;rounded=0;orthogonalLoop=1;jettySize=auto;html=1;entryX=1;entryY=0.5;entryDx=0;entryDy=0;fontSize=12;startSize=8;endSize=8;fillColor=#ffe6cc;strokeColor=#d79b00;" parent="1" source="MWsR9NhOi4AlFJ0MHyTv-11" target="MWsR9NhOi4AlFJ0MHyTv-31" edge="1">
          <mxGeometry relative="1" as="geometry" />
        </mxCell>
        <mxCell id="MWsR9NhOi4AlFJ0MHyTv-40" value="Peut lire/créer" style="edgeLabel;html=1;align=center;verticalAlign=middle;resizable=0;points=[];fontSize=16;" parent="MWsR9NhOi4AlFJ0MHyTv-39" vertex="1" connectable="0">
          <mxGeometry x="0.3297" y="1" relative="1" as="geometry">
            <mxPoint as="offset" />
          </mxGeometry>
        </mxCell>
        <mxCell id="MWsR9NhOi4AlFJ0MHyTv-44" style="edgeStyle=none;curved=1;rounded=0;orthogonalLoop=1;jettySize=auto;html=1;fontSize=12;startSize=8;endSize=8;fillColor=#ffe6cc;strokeColor=#d79b00;" parent="1" source="MWsR9NhOi4AlFJ0MHyTv-11" target="MWsR9NhOi4AlFJ0MHyTv-18" edge="1">
          <mxGeometry relative="1" as="geometry" />
        </mxCell>
        <mxCell id="MWsR9NhOi4AlFJ0MHyTv-45" value="Peut lire/créer" style="edgeLabel;html=1;align=center;verticalAlign=middle;resizable=0;points=[];fontSize=16;" parent="MWsR9NhOi4AlFJ0MHyTv-44" vertex="1" connectable="0">
          <mxGeometry x="-0.002" y="-1" relative="1" as="geometry">
            <mxPoint as="offset" />
          </mxGeometry>
        </mxCell>
        <mxCell id="MWsR9NhOi4AlFJ0MHyTv-164" style="edgeStyle=none;curved=1;rounded=0;orthogonalLoop=1;jettySize=auto;html=1;fontSize=12;startSize=8;endSize=8;" parent="1" source="MWsR9NhOi4AlFJ0MHyTv-11" target="MWsR9NhOi4AlFJ0MHyTv-46" edge="1">
          <mxGeometry relative="1" as="geometry" />
        </mxCell>
        <mxCell id="-pzp6EkCXluZw9pxXSIb-17" style="edgeStyle=none;curved=1;rounded=0;orthogonalLoop=1;jettySize=auto;html=1;fontSize=12;startSize=8;endSize=8;" edge="1" parent="1" source="MWsR9NhOi4AlFJ0MHyTv-11" target="-pzp6EkCXluZw9pxXSIb-1">
          <mxGeometry relative="1" as="geometry" />
        </mxCell>
        <mxCell id="MWsR9NhOi4AlFJ0MHyTv-11" value="Workflow" style="rounded=0;whiteSpace=wrap;html=1;fontSize=16;fillColor=#ffe6cc;strokeColor=#d79b00;" parent="1" vertex="1">
          <mxGeometry x="337" y="24" width="120" height="60" as="geometry" />
        </mxCell>
        <mxCell id="MWsR9NhOi4AlFJ0MHyTv-13" value="Workflow" style="text;html=1;strokeColor=none;fillColor=none;align=center;verticalAlign=middle;whiteSpace=wrap;rounded=0;fontSize=16;fontStyle=1" parent="1" vertex="1">
          <mxGeometry x="367" y="-46" width="60" height="30" as="geometry" />
        </mxCell>
        <mxCell id="MWsR9NhOi4AlFJ0MHyTv-18" value="Business Object" style="rounded=0;whiteSpace=wrap;html=1;fontSize=16;fillColor=#ffe6cc;strokeColor=#d79b00;" parent="1" vertex="1">
          <mxGeometry x="-213" y="428.5" width="120" height="60" as="geometry" />
        </mxCell>
        <mxCell id="MWsR9NhOi4AlFJ0MHyTv-21" value="Business Entities " style="text;html=1;strokeColor=none;fillColor=none;align=center;verticalAlign=middle;whiteSpace=wrap;rounded=0;fontSize=16;fontStyle=1" parent="1" vertex="1">
          <mxGeometry x="-245" y="371.5" width="60" height="30" as="geometry" />
        </mxCell>
        <mxCell id="MWsR9NhOi4AlFJ0MHyTv-31" value="Archive" style="rounded=0;whiteSpace=wrap;html=1;fontSize=16;fillColor=#ffe6cc;strokeColor=#d79b00;" parent="1" vertex="1">
          <mxGeometry x="-213" y="-329" width="120" height="60" as="geometry" />
        </mxCell>
        <mxCell id="MWsR9NhOi4AlFJ0MHyTv-33" value="Stockage" style="rounded=0;whiteSpace=wrap;html=1;fontSize=16;" parent="1" vertex="1">
          <mxGeometry x="-202" y="-419" width="120" height="60" as="geometry" />
        </mxCell>
        <mxCell id="MWsR9NhOi4AlFJ0MHyTv-35" value="Archivage" style="text;html=1;strokeColor=none;fillColor=none;align=center;verticalAlign=middle;whiteSpace=wrap;rounded=0;fontSize=16;shadow=0;fontStyle=1" parent="1" vertex="1">
          <mxGeometry x="-267" y="-578" width="60" height="30" as="geometry" />
        </mxCell>
        <mxCell id="MWsR9NhOi4AlFJ0MHyTv-36" value="Backup" style="rounded=0;whiteSpace=wrap;html=1;fontSize=16;" parent="1" vertex="1">
          <mxGeometry x="-349" y="-470" width="120" height="60" as="geometry" />
        </mxCell>
        <mxCell id="MWsR9NhOi4AlFJ0MHyTv-42" style="edgeStyle=none;curved=1;rounded=0;orthogonalLoop=1;jettySize=auto;html=1;entryX=0.992;entryY=0.383;entryDx=0;entryDy=0;entryPerimeter=0;fontSize=12;startSize=8;endSize=8;fillColor=#ffe6cc;strokeColor=#d79b00;" parent="1" source="MWsR9NhOi4AlFJ0MHyTv-11" target="MWsR9NhOi4AlFJ0MHyTv-2" edge="1">
          <mxGeometry relative="1" as="geometry" />
        </mxCell>
        <mxCell id="MWsR9NhOi4AlFJ0MHyTv-43" value="Peut lire/créer" style="edgeLabel;html=1;align=center;verticalAlign=middle;resizable=0;points=[];fontSize=16;" parent="MWsR9NhOi4AlFJ0MHyTv-42" vertex="1" connectable="0">
          <mxGeometry x="0.1689" y="-1" relative="1" as="geometry">
            <mxPoint x="99" y="-35" as="offset" />
          </mxGeometry>
        </mxCell>
        <mxCell id="MWsR9NhOi4AlFJ0MHyTv-127" style="edgeStyle=none;curved=1;rounded=0;orthogonalLoop=1;jettySize=auto;html=1;fontSize=12;startSize=8;endSize=8;fillColor=#ffe6cc;strokeColor=#d79b00;" parent="1" source="MWsR9NhOi4AlFJ0MHyTv-46" target="MWsR9NhOi4AlFJ0MHyTv-121" edge="1">
          <mxGeometry relative="1" as="geometry" />
        </mxCell>
        <mxCell id="MWsR9NhOi4AlFJ0MHyTv-128" value="Génère" style="edgeLabel;html=1;align=center;verticalAlign=middle;resizable=0;points=[];fontSize=16;" parent="MWsR9NhOi4AlFJ0MHyTv-127" vertex="1" connectable="0">
          <mxGeometry x="-0.0801" relative="1" as="geometry">
            <mxPoint as="offset" />
          </mxGeometry>
        </mxCell>
        <mxCell id="MWsR9NhOi4AlFJ0MHyTv-46" value="Moteur de workflow (Activiti)" style="rounded=0;whiteSpace=wrap;html=1;fontSize=16;" parent="1" vertex="1">
          <mxGeometry x="337" y="118" width="120" height="60" as="geometry" />
        </mxCell>
        <mxCell id="MWsR9NhOi4AlFJ0MHyTv-165" style="edgeStyle=none;curved=1;rounded=0;orthogonalLoop=1;jettySize=auto;html=1;fontSize=12;startSize=8;endSize=8;" parent="1" source="MWsR9NhOi4AlFJ0MHyTv-48" target="MWsR9NhOi4AlFJ0MHyTv-46" edge="1">
          <mxGeometry relative="1" as="geometry" />
        </mxCell>
        <mxCell id="MWsR9NhOi4AlFJ0MHyTv-48" value="Monitoring" style="rounded=0;whiteSpace=wrap;html=1;fontSize=16;" parent="1" vertex="1">
          <mxGeometry x="485" y="17" width="120" height="60" as="geometry" />
        </mxCell>
        <mxCell id="MWsR9NhOi4AlFJ0MHyTv-157" style="edgeStyle=none;curved=1;rounded=0;orthogonalLoop=1;jettySize=auto;html=1;fontSize=12;startSize=8;endSize=8;" parent="1" source="MWsR9NhOi4AlFJ0MHyTv-50" target="MWsR9NhOi4AlFJ0MHyTv-54" edge="1">
          <mxGeometry relative="1" as="geometry" />
        </mxCell>
        <mxCell id="MWsR9NhOi4AlFJ0MHyTv-158" style="edgeStyle=none;curved=1;rounded=0;orthogonalLoop=1;jettySize=auto;html=1;fontSize=12;startSize=8;endSize=8;" parent="1" source="MWsR9NhOi4AlFJ0MHyTv-50" target="MWsR9NhOi4AlFJ0MHyTv-1" edge="1">
          <mxGeometry relative="1" as="geometry" />
        </mxCell>
        <mxCell id="MWsR9NhOi4AlFJ0MHyTv-159" style="edgeStyle=none;curved=1;rounded=0;orthogonalLoop=1;jettySize=auto;html=1;fontSize=12;startSize=8;endSize=8;" parent="1" source="MWsR9NhOi4AlFJ0MHyTv-50" target="MWsR9NhOi4AlFJ0MHyTv-2" edge="1">
          <mxGeometry relative="1" as="geometry">
            <Array as="points">
              <mxPoint x="-264" y="117" />
            </Array>
          </mxGeometry>
        </mxCell>
        <mxCell id="MWsR9NhOi4AlFJ0MHyTv-160" style="edgeStyle=none;curved=1;rounded=0;orthogonalLoop=1;jettySize=auto;html=1;entryX=1;entryY=0.25;entryDx=0;entryDy=0;fontSize=12;startSize=8;endSize=8;" parent="1" source="MWsR9NhOi4AlFJ0MHyTv-50" target="MWsR9NhOi4AlFJ0MHyTv-3" edge="1">
          <mxGeometry relative="1" as="geometry" />
        </mxCell>
        <mxCell id="MWsR9NhOi4AlFJ0MHyTv-50" value="Recherche" style="rounded=0;whiteSpace=wrap;html=1;fontSize=16;" parent="1" vertex="1">
          <mxGeometry x="-297" y="-82" width="120" height="60" as="geometry" />
        </mxCell>
        <mxCell id="MWsR9NhOi4AlFJ0MHyTv-54" value="Classeur" style="rounded=0;whiteSpace=wrap;html=1;fontSize=16;" parent="1" vertex="1">
          <mxGeometry x="-441" y="-61" width="120" height="60" as="geometry" />
        </mxCell>
        <mxCell id="MWsR9NhOi4AlFJ0MHyTv-57" style="edgeStyle=none;curved=1;rounded=0;orthogonalLoop=1;jettySize=auto;html=1;fontSize=12;startSize=8;endSize=8;" parent="1" source="MWsR9NhOi4AlFJ0MHyTv-56" target="MWsR9NhOi4AlFJ0MHyTv-54" edge="1">
          <mxGeometry relative="1" as="geometry" />
        </mxCell>
        <mxCell id="MWsR9NhOi4AlFJ0MHyTv-58" style="edgeStyle=none;curved=1;rounded=0;orthogonalLoop=1;jettySize=auto;html=1;fontSize=12;startSize=8;endSize=8;" parent="1" source="MWsR9NhOi4AlFJ0MHyTv-56" target="MWsR9NhOi4AlFJ0MHyTv-3" edge="1">
          <mxGeometry relative="1" as="geometry" />
        </mxCell>
        <mxCell id="MWsR9NhOi4AlFJ0MHyTv-74" style="edgeStyle=none;curved=1;rounded=0;orthogonalLoop=1;jettySize=auto;html=1;entryX=1;entryY=0.5;entryDx=0;entryDy=0;fontSize=12;startSize=8;endSize=8;fillColor=#ffe6cc;strokeColor=#d79b00;" parent="1" source="MWsR9NhOi4AlFJ0MHyTv-56" target="MWsR9NhOi4AlFJ0MHyTv-65" edge="1">
          <mxGeometry relative="1" as="geometry" />
        </mxCell>
        <mxCell id="MWsR9NhOi4AlFJ0MHyTv-75" style="edgeStyle=none;curved=1;rounded=0;orthogonalLoop=1;jettySize=auto;html=1;entryX=1;entryY=0.5;entryDx=0;entryDy=0;fontSize=12;startSize=8;endSize=8;fillColor=#ffe6cc;strokeColor=#d79b00;" parent="1" source="MWsR9NhOi4AlFJ0MHyTv-56" target="MWsR9NhOi4AlFJ0MHyTv-62" edge="1">
          <mxGeometry relative="1" as="geometry" />
        </mxCell>
        <mxCell id="MWsR9NhOi4AlFJ0MHyTv-76" style="edgeStyle=none;curved=1;rounded=0;orthogonalLoop=1;jettySize=auto;html=1;fontSize=12;startSize=8;endSize=8;fillColor=#ffe6cc;strokeColor=#d79b00;" parent="1" source="MWsR9NhOi4AlFJ0MHyTv-56" target="MWsR9NhOi4AlFJ0MHyTv-63" edge="1">
          <mxGeometry relative="1" as="geometry" />
        </mxCell>
        <mxCell id="MWsR9NhOi4AlFJ0MHyTv-156" style="edgeStyle=none;curved=1;rounded=0;orthogonalLoop=1;jettySize=auto;html=1;fontSize=12;startSize=8;endSize=8;" parent="1" source="MWsR9NhOi4AlFJ0MHyTv-56" target="MWsR9NhOi4AlFJ0MHyTv-2" edge="1">
          <mxGeometry relative="1" as="geometry">
            <Array as="points">
              <mxPoint x="-398" y="195" />
            </Array>
          </mxGeometry>
        </mxCell>
        <mxCell id="MWsR9NhOi4AlFJ0MHyTv-56" value="Permissions" style="rounded=0;whiteSpace=wrap;html=1;fontSize=16;" parent="1" vertex="1">
          <mxGeometry x="-608" y="4" width="120" height="60" as="geometry" />
        </mxCell>
        <mxCell id="MWsR9NhOi4AlFJ0MHyTv-66" style="edgeStyle=none;curved=1;rounded=0;orthogonalLoop=1;jettySize=auto;html=1;fontSize=12;startSize=8;endSize=8;" parent="1" source="MWsR9NhOi4AlFJ0MHyTv-61" target="MWsR9NhOi4AlFJ0MHyTv-62" edge="1">
          <mxGeometry relative="1" as="geometry" />
        </mxCell>
        <mxCell id="MWsR9NhOi4AlFJ0MHyTv-61" value="Authentification (Keycloak)" style="rounded=0;whiteSpace=wrap;html=1;fontSize=16;" parent="1" vertex="1">
          <mxGeometry x="-1073" y="14" width="120" height="60" as="geometry" />
        </mxCell>
        <mxCell id="MWsR9NhOi4AlFJ0MHyTv-72" style="edgeStyle=none;curved=1;rounded=0;orthogonalLoop=1;jettySize=auto;html=1;fontSize=12;startSize=8;endSize=8;" parent="1" source="MWsR9NhOi4AlFJ0MHyTv-62" target="MWsR9NhOi4AlFJ0MHyTv-65" edge="1">
          <mxGeometry relative="1" as="geometry" />
        </mxCell>
        <mxCell id="MWsR9NhOi4AlFJ0MHyTv-73" style="edgeStyle=none;curved=1;rounded=0;orthogonalLoop=1;jettySize=auto;html=1;fontSize=12;startSize=8;endSize=8;" parent="1" source="MWsR9NhOi4AlFJ0MHyTv-62" target="MWsR9NhOi4AlFJ0MHyTv-63" edge="1">
          <mxGeometry relative="1" as="geometry" />
        </mxCell>
        <mxCell id="MWsR9NhOi4AlFJ0MHyTv-62" value="User" style="rounded=0;whiteSpace=wrap;html=1;fontSize=16;fillColor=#ffe6cc;strokeColor=#d79b00;" parent="1" vertex="1">
          <mxGeometry x="-899" y="14" width="120" height="60" as="geometry" />
        </mxCell>
        <mxCell id="MWsR9NhOi4AlFJ0MHyTv-63" value="Rôle" style="rounded=0;whiteSpace=wrap;html=1;fontSize=16;fillColor=#ffe6cc;strokeColor=#d79b00;" parent="1" vertex="1">
          <mxGeometry x="-899" y="100" width="120" height="60" as="geometry" />
        </mxCell>
        <mxCell id="MWsR9NhOi4AlFJ0MHyTv-65" value="Groupe" style="rounded=0;whiteSpace=wrap;html=1;fontSize=16;fillColor=#ffe6cc;strokeColor=#d79b00;" parent="1" vertex="1">
          <mxGeometry x="-899" y="-73" width="120" height="60" as="geometry" />
        </mxCell>
        <mxCell id="MWsR9NhOi4AlFJ0MHyTv-67" value="IAM" style="text;html=1;strokeColor=none;fillColor=none;align=center;verticalAlign=middle;whiteSpace=wrap;rounded=0;fontSize=16;fontStyle=1" parent="1" vertex="1">
          <mxGeometry x="-987" y="-105" width="60" height="30" as="geometry" />
        </mxCell>
        <mxCell id="MWsR9NhOi4AlFJ0MHyTv-78" style="edgeStyle=none;curved=1;rounded=0;orthogonalLoop=1;jettySize=auto;html=1;fontSize=12;startSize=8;endSize=8;" parent="1" source="MWsR9NhOi4AlFJ0MHyTv-77" target="MWsR9NhOi4AlFJ0MHyTv-46" edge="1">
          <mxGeometry relative="1" as="geometry" />
        </mxCell>
        <mxCell id="MWsR9NhOi4AlFJ0MHyTv-77" value="Recherche" style="rounded=0;whiteSpace=wrap;html=1;fontSize=16;" parent="1" vertex="1">
          <mxGeometry x="489" y="116" width="120" height="60" as="geometry" />
        </mxCell>
        <mxCell id="MWsR9NhOi4AlFJ0MHyTv-79" value="" style="ellipse;shape=cloud;whiteSpace=wrap;html=1;fontSize=16;" parent="1" vertex="1">
          <mxGeometry x="165.16" y="-532" width="491.84" height="418" as="geometry" />
        </mxCell>
        <mxCell id="MWsR9NhOi4AlFJ0MHyTv-83" style="edgeStyle=none;curved=1;rounded=0;orthogonalLoop=1;jettySize=auto;html=1;fontSize=12;startSize=8;endSize=8;startArrow=block;startFill=1;endArrow=none;endFill=0;fillColor=#ffe6cc;strokeColor=#d79b00;exitX=0.16;exitY=0.55;exitDx=0;exitDy=0;exitPerimeter=0;" parent="1" source="MWsR9NhOi4AlFJ0MHyTv-79" target="MWsR9NhOi4AlFJ0MHyTv-31" edge="1">
          <mxGeometry relative="1" as="geometry">
            <mxPoint x="230" y="-269" as="sourcePoint" />
          </mxGeometry>
        </mxCell>
        <mxCell id="MWsR9NhOi4AlFJ0MHyTv-84" value="Demande de LAD/RAD" style="edgeLabel;html=1;align=center;verticalAlign=middle;resizable=0;points=[];fontSize=16;" parent="MWsR9NhOi4AlFJ0MHyTv-83" vertex="1" connectable="0">
          <mxGeometry x="-0.0624" y="-2" relative="1" as="geometry">
            <mxPoint x="28" y="-2" as="offset" />
          </mxGeometry>
        </mxCell>
        <mxCell id="MWsR9NhOi4AlFJ0MHyTv-81" value="LAD/RAD" style="text;html=1;strokeColor=none;fillColor=none;align=center;verticalAlign=middle;whiteSpace=wrap;rounded=0;fontSize=16;fontStyle=1" parent="1" vertex="1">
          <mxGeometry x="343" y="-470" width="60" height="30" as="geometry" />
        </mxCell>
        <mxCell id="MWsR9NhOi4AlFJ0MHyTv-91" style="edgeStyle=none;curved=1;rounded=0;orthogonalLoop=1;jettySize=auto;html=1;entryX=0;entryY=0.25;entryDx=0;entryDy=0;fontSize=12;startSize=8;endSize=8;" parent="1" source="MWsR9NhOi4AlFJ0MHyTv-85" target="MWsR9NhOi4AlFJ0MHyTv-88" edge="1">
          <mxGeometry relative="1" as="geometry" />
        </mxCell>
        <mxCell id="MWsR9NhOi4AlFJ0MHyTv-85" value="Extraction de texte" style="rounded=0;whiteSpace=wrap;html=1;fontSize=16;" parent="1" vertex="1">
          <mxGeometry x="299.16" y="-424" width="120" height="60" as="geometry" />
        </mxCell>
        <mxCell id="MWsR9NhOi4AlFJ0MHyTv-92" style="edgeStyle=none;curved=1;rounded=0;orthogonalLoop=1;jettySize=auto;html=1;fontSize=12;startSize=8;endSize=8;" parent="1" source="MWsR9NhOi4AlFJ0MHyTv-86" target="MWsR9NhOi4AlFJ0MHyTv-85" edge="1">
          <mxGeometry relative="1" as="geometry" />
        </mxCell>
        <mxCell id="-pzp6EkCXluZw9pxXSIb-16" style="edgeStyle=none;curved=1;rounded=0;orthogonalLoop=1;jettySize=auto;html=1;fontSize=12;startSize=8;endSize=8;" edge="1" parent="1" source="MWsR9NhOi4AlFJ0MHyTv-86" target="MWsR9NhOi4AlFJ0MHyTv-88">
          <mxGeometry relative="1" as="geometry" />
        </mxCell>
        <mxCell id="MWsR9NhOi4AlFJ0MHyTv-86" value="Extraction de données" style="rounded=0;whiteSpace=wrap;html=1;fontSize=16;" parent="1" vertex="1">
          <mxGeometry x="301.16" y="-343" width="120" height="60" as="geometry" />
        </mxCell>
        <mxCell id="MWsR9NhOi4AlFJ0MHyTv-94" style="edgeStyle=none;curved=1;rounded=0;orthogonalLoop=1;jettySize=auto;html=1;fontSize=12;startSize=8;endSize=8;" parent="1" source="MWsR9NhOi4AlFJ0MHyTv-87" target="MWsR9NhOi4AlFJ0MHyTv-88" edge="1">
          <mxGeometry relative="1" as="geometry" />
        </mxCell>
        <mxCell id="-pzp6EkCXluZw9pxXSIb-15" style="edgeStyle=none;curved=1;rounded=0;orthogonalLoop=1;jettySize=auto;html=1;fontSize=12;startSize=8;endSize=8;" edge="1" parent="1" source="MWsR9NhOi4AlFJ0MHyTv-87" target="MWsR9NhOi4AlFJ0MHyTv-86">
          <mxGeometry relative="1" as="geometry" />
        </mxCell>
        <mxCell id="MWsR9NhOi4AlFJ0MHyTv-87" value="Catégorisation" style="rounded=0;whiteSpace=wrap;html=1;fontSize=16;" parent="1" vertex="1">
          <mxGeometry x="301.16" y="-262" width="120" height="60" as="geometry" />
        </mxCell>
        <mxCell id="MWsR9NhOi4AlFJ0MHyTv-88" value="Moteur d&#39;OCR (ABBYY)" style="rounded=0;whiteSpace=wrap;html=1;fontSize=16;" parent="1" vertex="1">
          <mxGeometry x="450" y="-345" width="120" height="60" as="geometry" />
        </mxCell>
        <mxCell id="MWsR9NhOi4AlFJ0MHyTv-95" value="" style="ellipse;shape=cloud;whiteSpace=wrap;html=1;fontSize=16;" parent="1" vertex="1">
          <mxGeometry x="-1224" y="285" width="308" height="259" as="geometry" />
        </mxCell>
        <mxCell id="MWsR9NhOi4AlFJ0MHyTv-96" value="Data Connector" style="text;html=1;strokeColor=none;fillColor=none;align=center;verticalAlign=middle;whiteSpace=wrap;rounded=0;fontSize=16;fontStyle=1" parent="1" vertex="1">
          <mxGeometry x="-1100" y="340" width="60" height="30" as="geometry" />
        </mxCell>
        <mxCell id="MWsR9NhOi4AlFJ0MHyTv-97" value="Données externes (DB)" style="rounded=0;whiteSpace=wrap;html=1;fontSize=16;" parent="1" vertex="1">
          <mxGeometry x="-1133" y="410" width="120" height="60" as="geometry" />
        </mxCell>
        <mxCell id="MWsR9NhOi4AlFJ0MHyTv-99" style="edgeStyle=none;curved=1;rounded=0;orthogonalLoop=1;jettySize=auto;html=1;fontSize=12;startSize=8;endSize=8;" parent="1" source="MWsR9NhOi4AlFJ0MHyTv-98" target="MWsR9NhOi4AlFJ0MHyTv-1" edge="1">
          <mxGeometry relative="1" as="geometry" />
        </mxCell>
        <mxCell id="MWsR9NhOi4AlFJ0MHyTv-98" value="Eform" style="rounded=0;whiteSpace=wrap;html=1;fontSize=16;" parent="1" vertex="1">
          <mxGeometry x="-28" y="-19" width="120" height="60" as="geometry" />
        </mxCell>
        <mxCell id="MWsR9NhOi4AlFJ0MHyTv-100" value="" style="ellipse;shape=cloud;whiteSpace=wrap;html=1;fontSize=16;" parent="1" vertex="1">
          <mxGeometry x="-896" y="272" width="359" height="297" as="geometry" />
        </mxCell>
        <mxCell id="MWsR9NhOi4AlFJ0MHyTv-103" style="edgeStyle=none;curved=1;rounded=0;orthogonalLoop=1;jettySize=auto;html=1;fontSize=12;startSize=8;endSize=8;fillColor=#ffe6cc;strokeColor=#d79b00;entryX=0;entryY=1;entryDx=0;entryDy=0;" parent="1" source="MWsR9NhOi4AlFJ0MHyTv-101" target="MWsR9NhOi4AlFJ0MHyTv-1" edge="1">
          <mxGeometry relative="1" as="geometry">
            <Array as="points">
              <mxPoint x="-334" y="197" />
            </Array>
          </mxGeometry>
        </mxCell>
        <mxCell id="MWsR9NhOi4AlFJ0MHyTv-104" value="La signature électronique porte sur un document" style="edgeLabel;html=1;align=center;verticalAlign=middle;resizable=0;points=[];fontSize=16;" parent="MWsR9NhOi4AlFJ0MHyTv-103" vertex="1" connectable="0">
          <mxGeometry x="-0.4813" y="8" relative="1" as="geometry">
            <mxPoint x="-24" y="-35" as="offset" />
          </mxGeometry>
        </mxCell>
        <mxCell id="MWsR9NhOi4AlFJ0MHyTv-140" style="edgeStyle=none;curved=1;rounded=0;orthogonalLoop=1;jettySize=auto;html=1;fontSize=12;startSize=8;endSize=8;" parent="1" source="MWsR9NhOi4AlFJ0MHyTv-101" target="MWsR9NhOi4AlFJ0MHyTv-118" edge="1">
          <mxGeometry relative="1" as="geometry" />
        </mxCell>
        <mxCell id="MWsR9NhOi4AlFJ0MHyTv-101" value="Signature électronique" style="rounded=0;whiteSpace=wrap;html=1;fontSize=16;" parent="1" vertex="1">
          <mxGeometry x="-772" y="384.5" width="120" height="60" as="geometry" />
        </mxCell>
        <mxCell id="MWsR9NhOi4AlFJ0MHyTv-102" value="ESignature" style="text;html=1;strokeColor=none;fillColor=none;align=center;verticalAlign=middle;whiteSpace=wrap;rounded=0;fontSize=16;fontStyle=1" parent="1" vertex="1">
          <mxGeometry x="-742" y="336" width="60" height="30" as="geometry" />
        </mxCell>
        <mxCell id="MWsR9NhOi4AlFJ0MHyTv-109" value="" style="ellipse;shape=cloud;whiteSpace=wrap;html=1;fontSize=16;" parent="1" vertex="1">
          <mxGeometry x="-1225" y="554" width="304" height="241" as="geometry" />
        </mxCell>
        <mxCell id="MWsR9NhOi4AlFJ0MHyTv-110" value="Fichiers externes (File System)" style="rounded=0;whiteSpace=wrap;html=1;fontSize=16;" parent="1" vertex="1">
          <mxGeometry x="-1130" y="673" width="120" height="60" as="geometry" />
        </mxCell>
        <mxCell id="MWsR9NhOi4AlFJ0MHyTv-111" value="File Server" style="text;html=1;strokeColor=none;fillColor=none;align=center;verticalAlign=middle;whiteSpace=wrap;rounded=0;fontSize=16;fontStyle=1" parent="1" vertex="1">
          <mxGeometry x="-1107" y="605" width="60" height="30" as="geometry" />
        </mxCell>
        <mxCell id="MWsR9NhOi4AlFJ0MHyTv-162" style="edgeStyle=none;curved=1;rounded=0;orthogonalLoop=1;jettySize=auto;html=1;fontSize=12;startSize=8;endSize=8;" parent="1" source="MWsR9NhOi4AlFJ0MHyTv-112" target="MWsR9NhOi4AlFJ0MHyTv-50" edge="1">
          <mxGeometry relative="1" as="geometry" />
        </mxCell>
        <mxCell id="MWsR9NhOi4AlFJ0MHyTv-112" value="GDPR" style="rounded=0;whiteSpace=wrap;html=1;fontSize=16;" parent="1" vertex="1">
          <mxGeometry x="-115" y="-82" width="120" height="60" as="geometry" />
        </mxCell>
        <mxCell id="-pzp6EkCXluZw9pxXSIb-5" style="edgeStyle=none;curved=1;rounded=0;orthogonalLoop=1;jettySize=auto;html=1;fontSize=12;startSize=8;endSize=8;" edge="1" parent="1" source="MWsR9NhOi4AlFJ0MHyTv-114" target="-pzp6EkCXluZw9pxXSIb-2">
          <mxGeometry relative="1" as="geometry" />
        </mxCell>
        <mxCell id="-pzp6EkCXluZw9pxXSIb-6" style="edgeStyle=none;curved=1;rounded=0;orthogonalLoop=1;jettySize=auto;html=1;fontSize=12;startSize=8;endSize=8;" edge="1" parent="1" source="MWsR9NhOi4AlFJ0MHyTv-114" target="MWsR9NhOi4AlFJ0MHyTv-36">
          <mxGeometry relative="1" as="geometry" />
        </mxCell>
        <mxCell id="-pzp6EkCXluZw9pxXSIb-12" style="edgeStyle=none;curved=1;rounded=0;orthogonalLoop=1;jettySize=auto;html=1;entryX=0;entryY=0.75;entryDx=0;entryDy=0;fontSize=12;startSize=8;endSize=8;" edge="1" parent="1" source="MWsR9NhOi4AlFJ0MHyTv-114" target="-pzp6EkCXluZw9pxXSIb-9">
          <mxGeometry relative="1" as="geometry" />
        </mxCell>
        <mxCell id="MWsR9NhOi4AlFJ0MHyTv-114" value="Profil" style="rounded=0;whiteSpace=wrap;html=1;fontSize=16;" parent="1" vertex="1">
          <mxGeometry x="-349" y="-393" width="120" height="60" as="geometry" />
        </mxCell>
        <mxCell id="MWsR9NhOi4AlFJ0MHyTv-115" style="edgeStyle=none;curved=1;rounded=0;orthogonalLoop=1;jettySize=auto;html=1;entryX=0.992;entryY=0.383;entryDx=0;entryDy=0;entryPerimeter=0;fontSize=12;startSize=8;endSize=8;" parent="1" source="MWsR9NhOi4AlFJ0MHyTv-31" target="MWsR9NhOi4AlFJ0MHyTv-114" edge="1">
          <mxGeometry relative="1" as="geometry" />
        </mxCell>
        <mxCell id="MWsR9NhOi4AlFJ0MHyTv-116" value="" style="ellipse;shape=cloud;whiteSpace=wrap;html=1;fontSize=16;" parent="1" vertex="1">
          <mxGeometry x="-561" y="605.5" width="335" height="292" as="geometry" />
        </mxCell>
        <mxCell id="MWsR9NhOi4AlFJ0MHyTv-135" style="edgeStyle=none;curved=1;rounded=0;orthogonalLoop=1;jettySize=auto;html=1;fontSize=12;startSize=8;endSize=8;" parent="1" source="MWsR9NhOi4AlFJ0MHyTv-117" target="MWsR9NhOi4AlFJ0MHyTv-134" edge="1">
          <mxGeometry relative="1" as="geometry" />
        </mxCell>
        <mxCell id="MWsR9NhOi4AlFJ0MHyTv-117" value="Codes d&#39;erreur" style="rounded=0;whiteSpace=wrap;html=1;fontSize=16;" parent="1" vertex="1">
          <mxGeometry x="-443" y="707.5" width="120" height="60" as="geometry" />
        </mxCell>
        <mxCell id="MWsR9NhOi4AlFJ0MHyTv-118" value="Provider externe" style="rounded=0;whiteSpace=wrap;html=1;fontSize=16;" parent="1" vertex="1">
          <mxGeometry x="-772" y="464" width="120" height="60" as="geometry" />
        </mxCell>
        <mxCell id="MWsR9NhOi4AlFJ0MHyTv-119" value="Knowledge" style="text;html=1;strokeColor=none;fillColor=none;align=center;verticalAlign=middle;whiteSpace=wrap;rounded=0;fontSize=16;fontStyle=1" parent="1" vertex="1">
          <mxGeometry x="-424" y="663.5" width="60" height="30" as="geometry" />
        </mxCell>
        <mxCell id="MWsR9NhOi4AlFJ0MHyTv-121" value="Notification" style="rounded=0;whiteSpace=wrap;html=1;fontSize=16;fillColor=#ffe6cc;strokeColor=#d79b00;" parent="1" vertex="1">
          <mxGeometry x="208" y="379" width="120" height="60" as="geometry" />
        </mxCell>
        <mxCell id="MWsR9NhOi4AlFJ0MHyTv-124" style="edgeStyle=none;curved=1;rounded=0;orthogonalLoop=1;jettySize=auto;html=1;fontSize=12;startSize=8;endSize=8;" parent="1" source="MWsR9NhOi4AlFJ0MHyTv-122" target="MWsR9NhOi4AlFJ0MHyTv-121" edge="1">
          <mxGeometry relative="1" as="geometry" />
        </mxCell>
        <mxCell id="MWsR9NhOi4AlFJ0MHyTv-122" value="Filtrage" style="rounded=0;whiteSpace=wrap;html=1;fontSize=16;" parent="1" vertex="1">
          <mxGeometry x="145" y="475" width="120" height="60" as="geometry" />
        </mxCell>
        <mxCell id="MWsR9NhOi4AlFJ0MHyTv-161" style="edgeStyle=none;curved=1;rounded=0;orthogonalLoop=1;jettySize=auto;html=1;entryX=0.75;entryY=1;entryDx=0;entryDy=0;fontSize=12;startSize=8;endSize=8;" parent="1" source="MWsR9NhOi4AlFJ0MHyTv-123" target="MWsR9NhOi4AlFJ0MHyTv-121" edge="1">
          <mxGeometry relative="1" as="geometry" />
        </mxCell>
        <mxCell id="MWsR9NhOi4AlFJ0MHyTv-123" value="Distribution" style="rounded=0;whiteSpace=wrap;html=1;fontSize=16;" parent="1" vertex="1">
          <mxGeometry x="328" y="475" width="120" height="60" as="geometry" />
        </mxCell>
        <mxCell id="MWsR9NhOi4AlFJ0MHyTv-126" value="Notifications" style="text;html=1;strokeColor=none;fillColor=none;align=center;verticalAlign=middle;whiteSpace=wrap;rounded=0;fontSize=16;fontStyle=1" parent="1" vertex="1">
          <mxGeometry x="208" y="319" width="60" height="30" as="geometry" />
        </mxCell>
        <mxCell id="MWsR9NhOi4AlFJ0MHyTv-131" value="" style="ellipse;shape=cloud;whiteSpace=wrap;html=1;fontSize=16;" parent="1" vertex="1">
          <mxGeometry x="-204" y="585.5" width="424" height="304" as="geometry" />
        </mxCell>
        <mxCell id="MWsR9NhOi4AlFJ0MHyTv-138" style="edgeStyle=none;curved=1;rounded=0;orthogonalLoop=1;jettySize=auto;html=1;fontSize=12;startSize=8;endSize=8;" parent="1" source="MWsR9NhOi4AlFJ0MHyTv-132" target="MWsR9NhOi4AlFJ0MHyTv-137" edge="1">
          <mxGeometry relative="1" as="geometry" />
        </mxCell>
        <mxCell id="MWsR9NhOi4AlFJ0MHyTv-139" style="edgeStyle=none;curved=1;rounded=0;orthogonalLoop=1;jettySize=auto;html=1;fontSize=12;startSize=8;endSize=8;" parent="1" source="MWsR9NhOi4AlFJ0MHyTv-132" target="MWsR9NhOi4AlFJ0MHyTv-136" edge="1">
          <mxGeometry relative="1" as="geometry" />
        </mxCell>
        <mxCell id="MWsR9NhOi4AlFJ0MHyTv-132" value="Traduction" style="rounded=0;whiteSpace=wrap;html=1;fontSize=16;" parent="1" vertex="1">
          <mxGeometry x="36" y="723.5" width="120" height="60" as="geometry" />
        </mxCell>
        <mxCell id="MWsR9NhOi4AlFJ0MHyTv-133" value="Translations" style="text;html=1;strokeColor=none;fillColor=none;align=center;verticalAlign=middle;whiteSpace=wrap;rounded=0;fontSize=16;fontStyle=1" parent="1" vertex="1">
          <mxGeometry x="-36" y="641.5" width="60" height="30" as="geometry" />
        </mxCell>
        <mxCell id="MWsR9NhOi4AlFJ0MHyTv-134" value="Messages d&#39;erreur" style="rounded=0;whiteSpace=wrap;html=1;fontSize=16;" parent="1" vertex="1">
          <mxGeometry x="-446" y="785.5" width="120" height="60" as="geometry" />
        </mxCell>
        <mxCell id="MWsR9NhOi4AlFJ0MHyTv-136" value="Langue" style="rounded=0;whiteSpace=wrap;html=1;fontSize=16;" parent="1" vertex="1">
          <mxGeometry x="-104" y="759.5" width="120" height="60" as="geometry" />
        </mxCell>
        <mxCell id="MWsR9NhOi4AlFJ0MHyTv-137" value="Libellé" style="rounded=0;whiteSpace=wrap;html=1;fontSize=16;" parent="1" vertex="1">
          <mxGeometry x="-104" y="688.5" width="120" height="60" as="geometry" />
        </mxCell>
        <mxCell id="MWsR9NhOi4AlFJ0MHyTv-150" value="" style="ellipse;shape=cloud;whiteSpace=wrap;html=1;fontSize=16;" parent="1" vertex="1">
          <mxGeometry x="-822" y="-472" width="317" height="270" as="geometry" />
        </mxCell>
        <mxCell id="MWsR9NhOi4AlFJ0MHyTv-152" value="Moteur d&#39;indexation (Solr)" style="rounded=0;whiteSpace=wrap;html=1;fontSize=16;" parent="1" vertex="1">
          <mxGeometry x="-719" y="-362" width="120" height="60" as="geometry" />
        </mxCell>
        <mxCell id="MWsR9NhOi4AlFJ0MHyTv-153" value="Recherche" style="text;html=1;strokeColor=none;fillColor=none;align=center;verticalAlign=middle;whiteSpace=wrap;rounded=0;fontSize=16;fontStyle=1" parent="1" vertex="1">
          <mxGeometry x="-696" y="-427" width="60" height="30" as="geometry" />
        </mxCell>
        <mxCell id="MWsR9NhOi4AlFJ0MHyTv-155" style="edgeStyle=none;curved=1;rounded=0;orthogonalLoop=1;jettySize=auto;html=1;fontSize=12;startSize=8;endSize=8;fillColor=#ffe6cc;strokeColor=#d79b00;" parent="1" source="MWsR9NhOi4AlFJ0MHyTv-50" target="MWsR9NhOi4AlFJ0MHyTv-152" edge="1">
          <mxGeometry relative="1" as="geometry" />
        </mxCell>
        <mxCell id="MWsR9NhOi4AlFJ0MHyTv-169" value="La recherche peut se faire via Solr" style="edgeLabel;html=1;align=center;verticalAlign=middle;resizable=0;points=[];fontSize=16;" parent="MWsR9NhOi4AlFJ0MHyTv-155" vertex="1" connectable="0">
          <mxGeometry x="0.1477" y="-1" relative="1" as="geometry">
            <mxPoint x="-7" y="22" as="offset" />
          </mxGeometry>
        </mxCell>
        <mxCell id="MWsR9NhOi4AlFJ0MHyTv-168" style="edgeStyle=none;curved=1;rounded=0;orthogonalLoop=1;jettySize=auto;html=1;fontSize=12;startSize=8;endSize=8;" parent="1" source="MWsR9NhOi4AlFJ0MHyTv-163" target="MWsR9NhOi4AlFJ0MHyTv-46" edge="1">
          <mxGeometry relative="1" as="geometry" />
        </mxCell>
        <mxCell id="MWsR9NhOi4AlFJ0MHyTv-163" value="Statistiques" style="rounded=0;whiteSpace=wrap;html=1;fontSize=16;" parent="1" vertex="1">
          <mxGeometry x="393" y="201" width="120" height="60" as="geometry" />
        </mxCell>
        <mxCell id="MWsR9NhOi4AlFJ0MHyTv-173" value="" style="ellipse;shape=cloud;whiteSpace=wrap;html=1;fontSize=16;" parent="1" vertex="1">
          <mxGeometry x="-879" y="566" width="304" height="241" as="geometry" />
        </mxCell>
        <mxCell id="MWsR9NhOi4AlFJ0MHyTv-174" value="Queue externe (MQ)" style="rounded=0;whiteSpace=wrap;html=1;fontSize=16;" parent="1" vertex="1">
          <mxGeometry x="-784" y="685" width="120" height="60" as="geometry" />
        </mxCell>
        <mxCell id="MWsR9NhOi4AlFJ0MHyTv-175" value="Messaging" style="text;html=1;strokeColor=none;fillColor=none;align=center;verticalAlign=middle;whiteSpace=wrap;rounded=0;fontSize=16;fontStyle=1" parent="1" vertex="1">
          <mxGeometry x="-761" y="617" width="60" height="30" as="geometry" />
        </mxCell>
        <mxCell id="MWsR9NhOi4AlFJ0MHyTv-177" style="edgeStyle=none;curved=1;rounded=0;orthogonalLoop=1;jettySize=auto;html=1;fontSize=12;startSize=8;endSize=8;" parent="1" source="MWsR9NhOi4AlFJ0MHyTv-176" target="MWsR9NhOi4AlFJ0MHyTv-1" edge="1">
          <mxGeometry relative="1" as="geometry" />
        </mxCell>
        <mxCell id="MWsR9NhOi4AlFJ0MHyTv-178" style="edgeStyle=none;curved=1;rounded=0;orthogonalLoop=1;jettySize=auto;html=1;fontSize=12;startSize=8;endSize=8;" parent="1" source="MWsR9NhOi4AlFJ0MHyTv-176" target="MWsR9NhOi4AlFJ0MHyTv-2" edge="1">
          <mxGeometry relative="1" as="geometry" />
        </mxCell>
        <mxCell id="MWsR9NhOi4AlFJ0MHyTv-176" value="Versioning" style="rounded=0;whiteSpace=wrap;html=1;fontSize=16;" parent="1" vertex="1">
          <mxGeometry x="-74" y="95" width="120" height="60" as="geometry" />
        </mxCell>
        <mxCell id="-pzp6EkCXluZw9pxXSIb-1" value="Formulaires" style="rounded=0;whiteSpace=wrap;html=1;fontSize=16;" vertex="1" parent="1">
          <mxGeometry x="463" y="-52" width="120" height="60" as="geometry" />
        </mxCell>
        <mxCell id="-pzp6EkCXluZw9pxXSIb-2" value="Viewer" style="rounded=0;whiteSpace=wrap;html=1;fontSize=16;" vertex="1" parent="1">
          <mxGeometry x="-351" y="-317" width="120" height="60" as="geometry" />
        </mxCell>
        <mxCell id="-pzp6EkCXluZw9pxXSIb-7" value="Compression" style="rounded=0;whiteSpace=wrap;html=1;fontSize=16;" vertex="1" parent="1">
          <mxGeometry x="-202" y="-537" width="120" height="60" as="geometry" />
        </mxCell>
        <mxCell id="-pzp6EkCXluZw9pxXSIb-9" value="Chiffrement" style="rounded=0;whiteSpace=wrap;html=1;fontSize=16;" vertex="1" parent="1">
          <mxGeometry x="-202" y="-479" width="120" height="60" as="geometry" />
        </mxCell>
        <mxCell id="-pzp6EkCXluZw9pxXSIb-11" value="Purge" style="rounded=0;whiteSpace=wrap;html=1;fontSize=16;" vertex="1" parent="1">
          <mxGeometry x="-349" y="-524" width="120" height="60" as="geometry" />
        </mxCell>
        <mxCell id="-pzp6EkCXluZw9pxXSIb-14" style="edgeStyle=none;curved=1;rounded=0;orthogonalLoop=1;jettySize=auto;html=1;entryX=1;entryY=0.5;entryDx=0;entryDy=0;fontSize=12;startSize=8;endSize=8;" edge="1" parent="1" source="-pzp6EkCXluZw9pxXSIb-13" target="MWsR9NhOi4AlFJ0MHyTv-87">
          <mxGeometry relative="1" as="geometry" />
        </mxCell>
        <mxCell id="-pzp6EkCXluZw9pxXSIb-13" value="Templates" style="rounded=0;whiteSpace=wrap;html=1;fontSize=16;" vertex="1" parent="1">
          <mxGeometry x="450" y="-262" width="120" height="60" as="geometry" />
        </mxCell>
      </root>
    </mxGraphModel>
  </diagram>
</mxfile>
